<svg width="40" height="40" viewBox="0 0 40 40" fill="none" xmlns="http://www.w3.org/2000/svg">
<path d="M0.5 20C0.5 9.23036 9.23036 0.5 20 0.5C30.7696 0.5 39.5 9.23036 39.5 20C39.5 30.7696 30.7696 39.5 20 39.5C9.23036 39.5 0.5 30.7696 0.5 20Z" fill="#40B3E0" stroke="white"/>
<path d="M29.7318 11.5047L26.1594 29.5155C26.1594 29.5155 25.6599 30.7646 24.286 30.165L16.0425 23.845L13.045 22.3963L7.9991 20.6975C7.9991 20.6975 7.22473 20.4228 7.14973 19.8233C7.07473 19.2238 8.0241 18.8991 8.0241 18.8991L28.0829 11.0303C28.0829 11.0303 29.7316 10.306 29.7316 11.505" fill="white"/>
<path d="M15.4091 29.313C15.4091 29.313 15.1685 29.2905 14.8685 28.3411C14.5689 27.3919 13.045 22.3959 13.045 22.3959L25.1604 14.7022C25.1604 14.7022 25.8599 14.2775 25.8349 14.7022C25.8349 14.7022 25.9597 14.7772 25.5849 15.1269C25.2104 15.4767 16.0677 23.695 16.0677 23.695" fill="#D2E5F1"/>
<path d="M19.2033 26.2679L15.9428 29.2407C15.9428 29.2407 15.6878 29.4341 15.4091 29.3129L16.0334 23.791" fill="#B5CFE4"/>
</svg>
