<svg width="44" height="44" viewBox="0 0 44 44" fill="none" xmlns="http://www.w3.org/2000/svg">
<path d="M24.6878 36.1435H38.1673L38.9114 22H23.9443L24.6878 36.1435ZM31.4273 23.5726C32.886 23.5726 34.2851 24.152 35.3166 25.1836C36.3477 26.2151 36.9276 27.6138 36.9276 29.0725C36.9276 30.5313 36.3477 31.9303 35.3166 32.9619C34.2851 33.993 32.886 34.5729 31.4273 34.5729C29.9686 34.5729 28.57 33.993 27.5385 32.9619C26.507 31.9303 25.9275 30.5313 25.9275 29.0725C25.9292 27.6146 26.509 26.2164 27.5402 25.1853C28.5713 24.1541 29.9695 23.5743 31.4273 23.5726Z" fill="#12ADC1"/>
<path d="M40.0712 0C39.0298 0.00124425 38.031 0.41561 37.2948 1.1523C36.5582 1.88852 36.1439 2.88732 36.1426 3.92876V11.0003H37.7141V3.92876C37.7141 3.3037 37.9626 2.70394 38.4043 2.2618C38.8465 1.82006 39.4462 1.57161 40.0712 1.57161H43.9999L43.9995 0H40.0712Z" fill="#12ADC1"/>
<path d="M25.1019 44.0004H37.7533L37.8358 42.4292H34.5708V40.8576H37.9191L38.0842 37.7148H24.7714L25.1019 44.0004Z" fill="#12ADC1"/>
<path d="M35.3567 29.0719C35.3567 31.2416 33.5977 33.0007 31.4281 33.0007C29.2584 33.0007 27.4998 31.2416 27.4998 29.0719C27.4998 26.9022 29.2584 25.1436 31.4281 25.1436C33.5977 25.1436 35.3567 26.9022 35.3567 29.0719Z" fill="#12ADC1"/>
<path d="M21.9992 12.5713H40.8557V14.1429H21.9992V12.5713Z" fill="#12ADC1"/>
<path d="M23.6962 17.2859H26.714V18.8575H23.7795L23.8621 20.4291H38.9948L39.2429 15.7148H23.6132L23.6962 17.2859Z" fill="#12ADC1"/>
<path d="M7.85721 7.07156C7.85721 10.9771 6.09823 14.1431 3.92854 14.1431C1.75886 14.1431 -0.00012207 10.9772 -0.00012207 7.07156C-0.00012207 3.16595 1.75886 0 3.92854 0C6.09823 0 7.85721 3.16595 7.85721 7.07156Z" fill="#12ADC1"/>
<path d="M2.35724 26.4108L5.50038 25.3626V19.6433H2.35724V26.4108Z" fill="#12ADC1"/>
<path d="M2.35724 44.0004H5.50038V36.4473L2.35724 37.4954V44.0004Z" fill="#12ADC1"/>
<path d="M2.35724 35.8392L5.50038 34.791V27.0186L2.35724 28.0667V35.8392Z" fill="#12ADC1"/>
<path d="M12.5705 18.0715V20.4287H14.1421V17.2855H15.7136V20.4283H17.2852L17.2848 0.0634766C13.3233 0.739977 12.5706 6.79451 12.5706 18.071L12.5705 18.0715ZM15.7132 15.7144H14.1421V14.1428H15.7136L15.7132 15.7144Z" fill="#12ADC1"/>
<path d="M13.3573 40.553L16.5 39.5049V31.7324L13.3573 32.7806V40.553Z" fill="#12ADC1"/>
<path d="M13.3573 44.0001H16.5V41.1614L13.3573 42.2095V44.0001Z" fill="#12ADC1"/>
<path d="M13.3573 31.1242L16.5 30.076V26.7139H13.3573V31.1242Z" fill="#12ADC1"/>
<path d="M3.14276 14.9287H4.71433V19.0002H3.14276V14.9287Z" fill="#12ADC1"/>
<path d="M14.142 21.2139H15.7136V25.9282H14.142V21.2139Z" fill="#12ADC1"/>
</svg>
