<svg width="44" height="46" viewBox="0 0 44 46" fill="none" xmlns="http://www.w3.org/2000/svg">
<path d="M25.1428 21.4142C25.1428 20.7833 24.8943 20.1783 24.4522 19.732C24.0101 19.2857 23.4107 19.0349 22.7857 19.0349C22.1602 19.0349 21.5609 19.2857 21.1188 19.732C20.6766 20.1783 20.4286 20.7833 20.4286 21.4142C20.4286 22.0456 20.6766 22.6505 21.1188 23.0969C21.5609 23.5432 22.1602 23.7935 22.7857 23.7935C23.4107 23.7935 24.0101 23.5432 24.4522 23.0969C24.8943 22.6505 25.1428 22.0456 25.1428 21.4142ZM22.0001 21.4142H21.9996C21.9996 21.0935 22.1913 20.8042 22.4849 20.6815C22.7786 20.5589 23.1162 20.6267 23.341 20.8536C23.5658 21.0805 23.633 21.4213 23.5115 21.7178C23.3899 22.0142 23.1033 22.2076 22.7856 22.2076C22.3514 22.2076 21.9996 21.8526 21.9996 21.4142L22.0001 21.4142Z" fill="#12ADC1"/>
<path d="M18.0709 32.5181C18.068 32.789 18.0195 33.0573 17.9261 33.3111H22.7852V31.7251H18.071L18.0709 32.5181Z" fill="#12ADC1"/>
<path d="M12.1277 12.8064C12.4259 13.5228 12.5765 14.2927 12.5707 15.0693C12.6155 15.7723 12.438 16.4715 12.0643 17.0665C11.8403 17.4144 11.742 17.8293 11.7851 18.2417C11.7416 18.6541 11.8403 19.069 12.0643 19.4165C12.438 20.0114 12.6155 20.711 12.5707 21.414C12.6155 22.1174 12.438 22.817 12.0643 23.412C11.9871 23.5313 11.9245 23.6594 11.878 23.7934H13.4135H13.4131C13.4762 23.3643 13.6296 22.9531 13.8636 22.5889C14.0875 22.2414 14.1858 21.8265 14.1423 21.4141C14.1858 21.0021 14.0875 20.5872 13.8636 20.2397C13.4894 19.6448 13.3119 18.9452 13.3567 18.2418C13.3119 17.5388 13.4894 16.8396 13.8636 16.2447C14.0871 15.8967 14.1854 15.4818 14.1423 15.0694C14.1473 14.4837 14.0307 13.9038 13.7997 13.3666C13.5015 12.6503 13.3509 11.8803 13.3567 11.1037H14.9283H14.9279C14.9229 11.6894 15.0398 12.2693 15.2705 12.8065C15.5687 13.5229 15.7197 14.2928 15.7139 15.0694C15.7582 15.7724 15.5807 16.4716 15.207 17.0665C14.9834 17.4144 14.8847 17.8293 14.9279 18.2418C14.8843 18.6542 14.983 19.0691 15.207 19.4166C15.5811 20.0115 15.7587 20.7111 15.7139 21.4141C15.7586 22.1175 15.5811 22.8171 15.207 23.4121C15.1299 23.5314 15.0672 23.6595 15.0208 23.7935H16.5563H16.5558C16.6189 23.3643 16.7724 22.9532 17.0063 22.589C17.2303 22.2415 17.329 21.8266 17.285 21.4142C17.329 21.0022 17.2303 20.5873 17.0063 20.2398C16.6322 19.6448 16.4546 18.9453 16.4994 18.2418C16.4551 17.5389 16.6326 16.8397 17.0063 16.2447C17.2298 15.8968 17.3286 15.4819 17.285 15.0695C17.29 14.4838 17.1734 13.9039 16.9424 13.3667C16.6446 12.6503 16.4936 11.8804 16.4994 11.1038H19.6422C20.6837 11.1025 21.6824 10.6843 22.419 9.94107C23.1552 9.1975 23.5696 8.18973 23.5709 7.1385V6.34511H27.4995V4.75915H23.5709V3.96576C23.5696 2.91447 23.1552 1.9067 22.419 1.16319C21.6824 0.420037 20.6836 0.00177446 19.6422 0.000488281H10.9996V1.58645H19.6422C20.2676 1.58645 20.867 1.83723 21.3091 2.28354C21.7512 2.72986 21.9993 3.33484 21.9993 3.96575V7.13853C21.9993 7.76947 21.7512 8.37443 21.3091 8.82074C20.8669 9.26705 20.2676 9.51783 19.6422 9.51783H16.7181C16.7886 9.27375 16.8665 9.04766 16.9429 8.84125H16.9424C17.0594 8.54692 17.1498 8.24213 17.212 7.93147H18.8566C19.2734 7.93147 19.6733 7.76441 19.9678 7.46674C20.2627 7.16948 20.4281 6.76587 20.4281 6.34509V4.75913C20.4281 4.33836 20.2627 3.93475 19.9678 3.63748C19.6733 3.3398 19.2734 3.17275 18.8566 3.17275H10.9996V4.75914H18.8566V6.34553L10.9996 6.34511V7.9315H12.5201H12.5197C12.4496 8.436 12.3177 8.92962 12.1269 9.40106C12.112 9.44083 12.0987 9.48019 12.0846 9.51745L10.9996 9.51787V11.1043H11.7851V11.1038C11.7802 11.6896 11.8967 12.2694 12.1277 12.8066L12.1277 12.8064ZM13.7997 8.84073V8.84115C13.9166 8.54682 14.0066 8.24202 14.0693 7.93136H15.6628C15.5923 8.43586 15.4604 8.92948 15.2696 9.40092C15.2547 9.44069 15.2414 9.48005 15.2273 9.51731H13.5774C13.6458 9.27322 13.7234 9.04714 13.7997 8.84115L13.7997 8.84073Z" fill="#12ADC1"/>
<path d="M10.2146 26.9658H13.3573V25.3794H10.2146C10.0097 25.3773 9.81308 25.4598 9.66998 25.6072C9.51569 25.7537 9.42818 25.9585 9.42859 26.1724C9.42859 26.383 9.51154 26.5848 9.65879 26.7334C9.80603 26.8821 10.0059 26.9658 10.2146 26.9658L10.2146 26.9658Z" fill="#12ADC1"/>
<path d="M22.7853 28.5525H21.2137V29.3459C21.2112 29.6163 21.1623 29.8847 21.069 30.1388H22.7853L22.7853 28.5525Z" fill="#12ADC1"/>
<path d="M28.2853 36.4838C28.4935 36.4838 28.6934 36.4001 28.8407 36.2514C28.9883 36.1024 29.0709 35.901 29.0709 35.6904V25.3801H14.9276V32.5182C14.9276 32.9561 15.2798 33.3111 15.7136 33.3111C16.1474 33.3111 16.4992 32.9561 16.4992 32.5182V29.3458C16.4992 28.9075 16.8509 28.5524 17.2847 28.5524C17.719 28.5524 18.0707 28.9075 18.0707 29.3458C18.0707 29.7838 18.4224 30.1388 18.8563 30.1388C19.2901 30.1388 19.6418 29.7838 19.6418 29.3458V27.7594C19.6418 27.3215 19.994 26.9665 20.4278 26.9665H23.5706C23.7788 26.9665 23.9787 27.0498 24.1259 27.1984C24.2736 27.3475 24.3561 27.5493 24.3561 27.7595V34.1045C24.3561 34.5424 24.7079 34.8974 25.1421 34.8974C25.576 34.8974 25.9277 34.5424 25.9277 34.1045C25.9277 33.6661 26.2794 33.3111 26.7133 33.3111C27.1475 33.3111 27.4992 33.6661 27.4992 34.1045V35.6909V35.6904C27.4992 35.901 27.5818 36.1024 27.729 36.2515C27.8767 36.4001 28.0766 36.4838 28.2848 36.4838L28.2853 36.4838Z" fill="#12ADC1"/>
<path d="M29.8568 23.0005C29.8568 23.4384 29.5047 23.7935 29.0708 23.7935C28.637 23.7935 28.2853 23.4384 28.2853 23.0005C28.2853 22.5626 28.637 22.2075 29.0708 22.2075C29.5047 22.2075 29.8568 22.5626 29.8568 23.0005Z" fill="#12ADC1"/>
<path d="M30.6427 35.6907C30.6402 35.9616 30.5912 36.23 30.4979 36.4841H43.9999V34.8977H30.6434L30.6427 35.6907Z" fill="#12ADC1"/>
<path d="M34.3293 26.739C34.4836 26.592 34.5711 26.3877 34.5707 26.1734C34.5707 25.9632 34.4877 25.7614 34.3405 25.6127C34.1928 25.4641 33.9933 25.3804 33.7847 25.3804H30.642V26.9668H33.7847C33.9892 26.9684 34.1858 26.8864 34.3293 26.739L34.3293 26.739Z" fill="#12ADC1"/>
<path d="M7.85715 30.1387H13.357V28.5523H7.85715C7.65225 28.5506 7.45566 28.6327 7.31256 28.78C7.15827 28.927 7.07075 29.1313 7.07117 29.3457C7.07117 29.5558 7.15412 29.7576 7.30137 29.9063C7.44861 30.0549 7.64853 30.1386 7.85716 30.1386L7.85715 30.1387Z" fill="#12ADC1"/>
<path d="M30.6427 33.311H39.2853C39.4902 33.3131 39.6868 33.2311 39.8299 33.0837C39.9842 32.9367 40.0717 32.732 40.0713 32.5181C40.0713 32.3079 39.9883 32.1061 39.8411 31.957C39.6938 31.8084 39.4939 31.7251 39.2853 31.7251H30.6427L30.6427 33.311Z" fill="#12ADC1"/>
<path d="M28.2855 3.96606H43.9992V7.13841H28.2855V3.96606Z" fill="#12ADC1"/>
<path d="M30.6427 30.1386H36.1425C36.347 30.1403 36.5436 30.0582 36.6871 29.9109C36.8414 29.7643 36.9289 29.5596 36.9285 29.3456C36.9285 29.1351 36.8456 28.9332 36.6983 28.7846C36.5507 28.636 36.3512 28.5522 36.1425 28.5522H30.6427L30.6427 30.1386Z" fill="#12ADC1"/>
<path d="M4.71458 33.3111H13.5019C13.409 33.0574 13.36 32.789 13.3575 32.5181V31.7251H4.71465C4.51016 31.723 4.31357 31.8051 4.17006 31.9525C4.01576 32.0994 3.92866 32.3042 3.92908 32.5181C3.92908 32.7283 4.01162 32.9301 4.15928 33.0787C4.30652 33.2278 4.50644 33.3111 4.71466 33.3111L4.71458 33.3111Z" fill="#12ADC1"/>
<path d="M4.49483 46.0008H39.5037L41.0752 41.2422H37.7131V39.6562H41.5991L42.1226 38.0698H1.87585L4.49483 46.0008ZM34.5705 39.6562H36.1421V41.2426L34.5705 41.2422V39.6562Z" fill="#12ADC1"/>
<path d="M22.9296 34.8979H-0.00012207V36.4843H25.1424C24.6563 36.4822 24.183 36.3286 23.7873 36.0447C23.3912 35.7609 23.0918 35.3602 22.9296 34.898L22.9296 34.8979Z" fill="#12ADC1"/>
<path d="M26.0064 36.3169C25.7314 36.427 25.4382 36.4839 25.1425 36.4844H26.0711C26.0512 36.4278 26.0263 36.3747 26.0064 36.3169H26.0064Z" fill="#12ADC1"/>
</svg>
