<svg width="44" height="40" viewBox="0 0 44 40" fill="none" xmlns="http://www.w3.org/2000/svg">
<path d="M21.9979 6.40048C21.9979 7.03691 22.2463 7.64713 22.6885 8.09731C23.1306 8.54751 23.7299 8.80047 24.3548 8.80047C24.9803 8.80047 25.5795 8.54751 26.0216 8.09731C26.4637 7.64712 26.7118 7.03688 26.7118 6.40048C26.7118 5.76363 26.4637 5.1534 26.0216 4.70322C25.5795 4.25303 24.9802 4.00049 24.3548 4.00049C23.7298 4.00049 23.1306 4.25303 22.6885 4.70322C22.2463 5.15341 21.9979 5.76366 21.9979 6.40048ZM25.1404 6.40048H25.1408C25.1408 6.72398 24.9492 7.01538 24.6556 7.13953C24.362 7.26327 24.0244 7.19486 23.7996 6.96596C23.5748 6.73706 23.5076 6.39287 23.6291 6.0943C23.7506 5.7953 24.0372 5.60019 24.3549 5.60019C24.5635 5.60019 24.7634 5.68465 24.9106 5.83458C25.0579 5.9845 25.1408 6.18805 25.1408 6.40048H25.1404Z" fill="#12ADC1"/>
<path d="M36.1399 6.40075C36.9736 6.40075 37.7728 6.06332 38.3621 5.46321C38.9515 4.8631 39.2824 4.04931 39.2824 3.20041C39.2824 2.35197 38.9515 1.53774 38.3621 0.93761C37.7728 0.337497 36.9736 0.000488281 36.1399 0.000488281C35.3067 0.000488281 34.5071 0.337497 33.9177 0.93761C33.3284 1.53772 32.9974 2.35194 32.9974 3.20041C32.9974 4.04927 33.3284 4.86308 33.9177 5.46321C34.5071 6.06334 35.3067 6.40075 36.1399 6.40075ZM36.1399 1.60076C36.5567 1.60076 36.9565 1.76927 37.251 2.06911C37.5459 2.36937 37.7114 2.77607 37.7114 3.20051C37.7114 3.62495 37.5459 4.03204 37.251 4.33191C36.9566 4.63217 36.5568 4.80067 36.1399 4.80067C35.7231 4.80067 35.3237 4.63217 35.0288 4.33191C34.7344 4.03207 34.5689 3.62495 34.5689 3.20051C34.5689 2.77607 34.7344 2.36939 35.0288 2.06911C35.3237 1.76927 35.7231 1.60076 36.1399 1.60076Z" fill="#12ADC1"/>
<path d="M20.525 20.7998H26.6125C26.379 19.8766 25.7536 19.1072 24.9068 18.7014C24.0595 18.2955 23.0782 18.2955 22.2313 18.7014C21.384 19.1072 20.7586 19.8767 20.5251 20.7998H20.525Z" fill="#12ADC1"/>
<path d="M17.2835 15.2005C18.9877 15.1938 20.6197 15.9007 21.7963 17.1559C23.1197 16.6056 24.6169 16.6981 25.8648 17.4071C27.1132 18.1162 27.9767 19.3649 28.2118 20.8005H29.3942L29.164 20.5661C28.4295 19.7599 28.021 18.7007 28.021 17.6005C28.021 16.5004 28.4295 15.4412 29.164 14.635C29.6683 14.2017 30.2788 13.9158 30.93 13.8077C31.5811 13.6992 32.2489 13.7731 32.8622 14.0206V13.8926C32.8651 13.2532 33.007 12.6227 33.2778 12.0462C32.5047 11.4947 31.5836 11.1995 30.6396 11.2003C29.5995 11.2025 28.5892 11.5547 27.7664 12.2021C26.9431 12.8499 26.3533 13.7562 26.0892 14.7808C25.9979 15.1321 25.6856 15.3771 25.3285 15.3767C25.1419 15.3767 24.9611 15.3087 24.8197 15.1845C24.3726 14.7884 23.8239 14.5308 23.2379 14.4417C22.6519 14.3526 22.053 14.4362 21.5122 14.6824C21.2779 14.7901 21.0066 14.774 20.786 14.6397C20.5649 14.5054 20.4231 14.2698 20.4053 14.0088C20.2929 12.2887 19.4061 10.7185 18.0031 9.75434C16.6001 8.7902 14.8379 8.54099 13.2299 9.07906C11.6219 9.61709 10.3483 10.8819 9.78015 12.5053L13.7396 16.326C14.7815 15.5937 16.0178 15.2009 17.2836 15.2005L17.2835 15.2005ZM15.7121 12.0006H17.2835V13.6008L15.7125 13.6004L15.7121 12.0006ZM12.5696 11.2007H14.141V12.8009L12.5696 12.8005V11.2007Z" fill="#12ADC1"/>
<path d="M14.2046 17.977C13.3727 18.7021 12.8165 19.7008 12.6332 20.8001H18.9263C19.1047 19.7317 19.6339 18.7562 20.4269 18.0331C19.5671 17.2366 18.4461 16.7969 17.284 16.8004C16.15 16.7928 15.0535 17.2117 14.2045 17.977H14.2046Z" fill="#12ADC1"/>
<path d="M30.2751 15.765C29.828 16.2676 29.5804 16.9213 29.5804 17.5996C29.5804 18.2778 29.828 18.9315 30.2751 19.4342L31.6164 20.7995H41.9649L43.3062 19.4337L43.3058 19.4342C43.7529 18.9316 44.0001 18.2775 44.0001 17.5996C44.0001 16.9218 43.7529 16.2681 43.3058 15.765C42.6646 15.113 41.2948 15.3828 40.2936 15.9107L39.1472 16.5129L39.1476 13.8916C39.1431 13.3899 39.0079 12.8984 38.7553 12.4671C38.5027 12.0364 38.1423 11.6816 37.7106 11.4397V15.1995H36.1391V11.3315C35.6381 11.5385 35.2085 11.892 34.9045 12.3481C34.6009 12.8037 34.437 13.3409 34.4337 13.8916V16.5133L33.2874 15.9111C32.285 15.3828 30.9146 15.1133 30.2752 15.765L30.2751 15.765Z" fill="#12ADC1"/>
<path d="M-0.00012207 22.3999H43.9956V25.5998H-0.00012207V22.3999Z" fill="#12ADC1"/>
<path d="M0.542354 28.8006H3.92788V30.4008L0.891131 30.4004L2.98517 40.0005H41.0098L41.3586 38.4003H32.2108V36.8005H41.6381L43.801 27.2004H0.192749L0.542354 28.8006ZM29.0688 36.8005H30.6402V38.4007L29.0688 38.4003V36.8005Z" fill="#12ADC1"/>
<path d="M11.0906 20.5599C11.2793 19.3838 11.7894 18.2858 12.5625 17.3913L2.60181 7.78058C2.34343 7.48243 1.97266 7.31012 1.58198 7.30717C1.19129 7.30421 0.818033 7.47102 0.5555 7.76538C0.261456 8.02595 0.0926514 8.40308 0.0926514 8.80005C0.0926514 9.19661 0.261445 9.57373 0.5555 9.83431L11.0906 20.5599Z" fill="#12ADC1"/>
<path d="M7.85659 20.8003H9.10242L4.8999 16.521V16.5214C4.55277 17.5012 4.69667 18.5916 5.28519 19.4438C5.87411 20.2956 6.83339 20.8019 7.85658 20.8003L7.85659 20.8003Z" fill="#12ADC1"/>
</svg>
