<svg width="44" height="44" viewBox="0 0 44 44" fill="none" xmlns="http://www.w3.org/2000/svg">
<path d="M20.4283 14.4147H22H21.9995C22.0024 13.7375 22.236 13.0803 22.6636 12.5437C23.2542 11.7664 23.572 10.8268 23.5711 9.86293C23.6172 8.95786 23.2547 8.07802 22.5773 7.4513C22.1675 7.10609 21.9531 6.59268 21.9995 6.06961C22.0024 5.3924 22.236 4.73518 22.6644 4.19899C23.2542 3.42086 23.5715 2.48174 23.5711 1.51782H21.9995C21.9966 2.19503 21.7631 2.85266 21.3351 3.38885C20.7452 4.16658 20.4275 5.10569 20.4283 6.06961C20.3823 6.97468 20.7448 7.85452 21.4222 8.48124C21.8315 8.82685 22.0464 9.33986 21.9995 9.86293C21.997 10.5397 21.7635 11.1974 21.3359 11.7336C20.7452 12.5113 20.4271 13.4504 20.4283 14.4147H20.4283Z" fill="#12ADC1"/>
<path d="M14.9281 7.58683C14.9418 8.45426 15.2761 9.28849 15.8713 9.93849C16.2587 10.327 16.4827 10.8408 16.4997 11.3802H18.0713C18.058 10.5123 17.7233 9.67808 17.1285 9.02819C16.7407 8.63972 16.5167 8.12591 16.4997 7.58683C16.5167 7.04779 16.7407 6.53393 17.1285 6.14547C17.7233 5.49509 18.058 4.66095 18.0713 3.7935C18.0576 2.92607 17.7233 2.09184 17.1285 1.44185C16.7411 1.05338 16.5171 0.539571 16.4997 0.000488281H14.9281C14.9418 0.867919 15.2765 1.70174 15.8713 2.35214C16.2587 2.74061 16.4827 3.25442 16.4997 3.7935C16.4827 4.33295 16.2587 4.84672 15.8713 5.23487C15.2761 5.88525 14.9418 6.71939 14.9281 7.58683Z" fill="#12ADC1"/>
<path d="M25.9286 7.58683C25.9419 8.45426 26.2762 9.28849 26.8714 9.93849C27.2592 10.327 27.4832 10.8408 27.5002 11.3802H29.0719H29.0714C29.0582 10.5123 28.7239 9.67808 28.1286 9.02819C27.7413 8.63972 27.5169 8.12591 27.5003 7.58683C27.5169 7.04779 27.7412 6.53393 28.1286 6.14547C28.7239 5.49509 29.0582 4.66095 29.0714 3.7935C29.0577 2.92607 28.7234 2.09184 28.1286 1.44185C27.7413 1.05338 27.5173 0.539571 27.5003 0.000488281H25.9286C25.9423 0.867919 26.2766 1.70174 26.8714 2.35214C27.2588 2.74061 27.4828 3.25442 27.5002 3.7935C27.4832 4.33295 27.2593 4.84672 26.8714 5.23487C26.2762 5.88525 25.9419 6.71939 25.9286 7.58683Z" fill="#12ADC1"/>
<path d="M2.35706 32.6218H41.6425V34.1393H2.35706V32.6218Z" fill="#12ADC1"/>
<path d="M40.9023 22.0005H3.09802L9.83319 31.1042H34.1671L40.9023 22.0005ZM9.42863 25.0349H7.85745V23.5179H9.42906L9.42863 25.0349ZM12.5714 25.0349H11.0002V23.5179H12.5719L12.5714 25.0349Z" fill="#12ADC1"/>
<path d="M-0.00012207 17.4487H43.9999V20.4832H-0.00012207V17.4487Z" fill="#12ADC1"/>
<path d="M6.28582 39.4487C3.93567 39.4487 2.35706 40.3638 2.35706 41.7246C2.35706 43.0854 3.93567 44.0005 6.28582 44.0005C9.19299 44.0005 11.7858 42.7274 11.7858 41.7246C11.7858 40.7219 9.19299 39.4487 6.28582 39.4487Z" fill="#12ADC1"/>
<path d="M39.31 40.2083L16.5009 40.942V42.5095L39.3132 43.2427C39.7059 43.2411 40.083 43.0946 40.3675 42.833C40.6786 42.5427 40.8557 42.1434 40.8586 41.7253C40.8557 41.3072 40.6786 40.9075 40.3667 40.6171C40.0909 40.3424 39.7068 40.1938 39.3107 40.2082L39.31 40.2083Z" fill="#12ADC1"/>
<path d="M12.5709 40.9663H15.7137V42.4837H12.5709V40.9663Z" fill="#12ADC1"/>
</svg>
