<svg width="40" height="40" viewBox="0 0 40 40" fill="none" xmlns="http://www.w3.org/2000/svg">
<path d="M0.766644 39.2813L3.91434 29.8388L3.98668 29.6218L3.86978 29.4252C2.16879 26.5642 1.18966 23.2259 1.18966 19.6552C1.18966 9.07614 9.7658 0.5 20.3448 0.5C30.9239 0.5 39.5 9.07614 39.5 19.6552C39.5 30.2342 30.9239 38.8103 20.3448 38.8103C17.1257 38.8103 14.095 38.0126 11.433 36.6107L11.2609 36.5201L11.0728 36.5696L0.766644 39.2813Z" fill="#2CB742" stroke="white"/>
<path d="M32.8849 26.1963C31.9773 24.4811 28.6304 22.5197 28.6304 22.5197C27.8731 22.088 26.9593 22.0397 26.5276 22.8094C26.5276 22.8094 25.44 24.1135 25.1635 24.3011C23.9 25.157 22.7297 25.1239 21.5483 23.9425L18.8028 21.197L16.0573 18.4515C14.8759 17.2701 14.8428 16.0997 15.6987 14.8363C15.8862 14.5597 17.1904 13.4722 17.1904 13.4722C17.96 13.0397 17.9118 12.1266 17.48 11.3694C17.48 11.3694 15.5187 8.0225 13.8035 7.11491C13.0738 6.7287 12.178 6.86388 11.5945 7.44732L10.3821 8.65974C6.5359 12.5059 8.42969 16.848 12.2759 20.6942L15.7911 24.2094L19.3062 27.7246C23.1525 31.5708 27.4945 33.4646 31.3407 29.6184L32.5531 28.4059C33.1366 27.8211 33.2711 26.9253 32.8849 26.1963Z" fill="white"/>
</svg>
