<svg width="91" height="82" viewBox="0 0 91 82" fill="none" xmlns="http://www.w3.org/2000/svg">
<path d="M84.3715 23.6448H85.9244V14.1865H84.3715C82.707 14.1865 81.1688 15.0878 80.3366 16.5516C79.5035 18.0146 79.5035 19.817 80.3366 21.2808C81.1688 22.7437 82.707 23.6451 84.3715 23.6451V23.6448Z" fill="#12ADC1"/>
<path d="M81.265 72.5156C81.265 73.386 80.5697 74.0925 79.7121 74.0925C78.8545 74.0925 78.1592 73.386 78.1592 72.5156C78.1592 71.6451 78.8545 70.9395 79.7121 70.9395C80.5697 70.9395 81.265 71.6451 81.265 72.5156Z" fill="#12ADC1"/>
<path d="M73.4337 66.21C72.8261 67.1104 72.0898 67.9135 71.2486 68.5935C70.6845 69.8217 70.3926 71.1607 70.3943 72.5154C70.3861 75.6336 71.8914 78.5554 74.4201 80.3261C76.9479 82.097 80.1735 82.4897 83.0432 81.3763C85.9121 80.2621 88.0562 77.7848 88.7745 74.7531C89.4928 71.7222 88.6925 68.5261 86.6361 66.21L73.4337 66.21ZM79.7134 77.2446C78.4778 77.2446 77.2922 76.7461 76.4191 75.8599C75.545 74.9728 75.0539 73.7695 75.0539 72.5154C75.0539 71.2614 75.545 70.0581 76.4191 69.1718C77.2923 68.2847 78.4779 67.7863 79.7134 67.7863C80.949 67.7863 82.1346 68.2847 83.0086 69.1718C83.8819 70.0581 84.373 71.2614 84.373 72.5154C84.373 73.7695 83.8819 74.9728 83.0086 75.8599C82.1346 76.7461 80.949 77.2446 79.7134 77.2446Z" fill="#12ADC1"/>
<path d="M71.9475 19.7037C71.9475 20.7489 71.5384 21.7517 70.8094 22.4906C70.0813 23.2296 69.0942 23.6448 68.0644 23.6448H78.1601V14.1865H65.7343C64.6299 14.1899 63.6107 14.7907 63.0598 15.7635H68.0646C69.0944 15.7635 70.0816 16.1779 70.8096 16.9177C71.5386 17.6567 71.9477 18.6586 71.9477 19.7038L71.9475 19.7037Z" fill="#12ADC1"/>
<path d="M12.9261 39.4091H33.1173V36.2568H12.9261C12.0685 36.2568 11.3732 36.9625 11.3732 37.833C11.3732 38.7034 12.0685 39.4091 12.9261 39.4091V39.4091Z" fill="#12ADC1"/>
<path d="M6.71295 67.7843H9.81967V63.0552C9.82295 60.1302 10.9692 57.325 13.0076 55.2562C15.0459 53.1874 17.8091 52.024 20.6918 52.0206H39.3302C40.5658 52.0206 41.7506 52.5191 42.6246 53.4053C43.4986 54.2924 43.9898 55.4957 43.9898 56.7498V67.7843H64.5336C66.2915 67.791 67.9995 67.1893 69.3752 66.0784C70.751 64.9683 71.7128 63.4146 72.1022 61.6745L75.0317 48.7925L72.1408 26.7988H68.8406V56.7494C68.8381 58.839 68.019 60.842 66.5627 62.3198C65.1074 63.7977 63.133 64.6291 61.0743 64.6317H48.6493C47.7909 64.6317 47.0956 63.9252 47.0956 63.0547V42.5618H23.7989C19.2688 42.5677 14.9264 44.3959 11.7232 47.6463C8.52052 50.8977 6.71832 55.3047 6.7135 59.9024L6.71295 67.7843Z" fill="#12ADC1"/>
<path d="M48.6487 37.833C48.6487 37.4152 48.4848 37.0141 48.1937 36.7187C47.9026 36.4224 47.5074 36.2568 47.095 36.2568H36.2228V39.41H48.6487L48.6487 37.833Z" fill="#12ADC1"/>
<path d="M77.8289 50.5039L75.1282 62.384C75.0757 62.617 74.9822 62.8284 74.915 63.0556L90.5 63.0547C90.1401 59.8002 88.6814 56.7719 86.3725 54.4835C84.0628 52.1959 81.0438 50.7895 77.829 50.504L77.8289 50.5039Z" fill="#12ADC1"/>
<path d="M40.8825 56.75C40.8825 56.3322 40.7185 55.9311 40.4274 55.6349C40.1364 55.3394 39.7412 55.1738 39.3296 55.1738H20.6911C18.9013 55.1755 17.1672 55.8046 15.7806 56.953C14.3949 58.1014 13.4406 59.7001 13.0806 61.4791H40.8818L40.8825 56.75Z" fill="#12ADC1"/>
<path d="M5.15976 48.8682C4.30131 48.8682 3.60602 49.5739 3.60602 50.4452C3.63635 51.304 4.32509 51.988 5.17206 51.9988C5.53035 51.1484 5.94524 50.3228 6.41424 49.5289C6.12645 49.1145 5.65827 48.8682 5.15976 48.8682V48.8682Z" fill="#12ADC1"/>
<path d="M12.926 64.6328H40.8846V67.7859H12.926V64.6328Z" fill="#12ADC1"/>
<path d="M53.3085 19.7031C53.3085 19.9128 53.3896 20.1125 53.5356 20.2607C53.6815 20.4088 53.8791 20.492 54.0849 20.492H68.0638C68.4926 20.492 68.8403 20.1383 68.8403 19.7031C68.8403 19.2679 68.4926 18.915 68.0638 18.915H54.0849C53.6561 18.915 53.3085 19.2679 53.3085 19.7031Z" fill="#12ADC1"/>
<path d="M26.9032 72.5156C26.9032 73.386 26.2079 74.0925 25.3503 74.0925C24.4927 74.0925 23.7974 73.386 23.7974 72.5156C23.7974 71.6451 24.4927 70.9395 25.3503 70.9395C26.2079 70.9395 26.9032 71.6451 26.9032 72.5156Z" fill="#12ADC1"/>
<path d="M16.1711 70.9385C16.0825 71.4594 16.0358 71.9862 16.0317 72.5146C16.0317 75.894 17.8076 79.0164 20.6912 80.7056C23.574 82.3957 27.1267 82.3957 30.0103 80.7056C32.8931 79.0163 34.6699 75.894 34.6699 72.5146C34.6658 71.9862 34.619 71.4594 34.5297 70.9385H29.724C29.9085 71.4436 30.0053 71.9762 30.0102 72.5146C30.0102 74.2047 29.1222 75.7659 27.6799 76.6106C26.2385 77.4553 24.4626 77.4553 23.0203 76.6106C21.5789 75.766 20.6909 74.2048 20.6909 72.5146C20.6958 71.9762 20.7925 71.4436 20.9762 70.9385H16.1711Z" fill="#12ADC1"/>
<path d="M26.9032 3.15229C26.9032 4.02273 26.2079 4.72841 25.3503 4.72841C24.4927 4.72841 23.7974 4.02273 23.7974 3.15229C23.7974 2.28185 24.4927 1.57617 25.3503 1.57617C26.2079 1.57617 26.9032 2.28185 26.9032 3.15229Z" fill="#12ADC1"/>
<path d="M40.8825 18.9179C40.8825 18.5002 40.7186 18.0991 40.4275 17.8037C40.1364 17.5074 39.7412 17.3418 39.3296 17.3418H11.371C10.5134 17.3418 9.81812 18.0475 9.81812 18.9179C9.81812 19.7884 10.5134 20.4949 11.371 20.4949H39.3296C39.7412 20.4949 40.1364 20.3284 40.4275 20.033C40.7185 19.7368 40.8825 19.3365 40.8825 18.9179V18.9179Z" fill="#12ADC1"/>
<path d="M36.5627 26.7996L37.3392 23.6465H13.3624L14.1389 26.7996H36.5627Z" fill="#12ADC1"/>
<path d="M25.3521 7.8819C23.4261 7.87442 21.546 8.47857 19.9751 9.60866C18.4041 10.7396 17.221 12.3406 16.5905 14.1872H34.1122C33.4817 12.3406 32.2985 10.7403 30.7276 9.61036C29.1566 8.47944 27.2773 7.8753 25.3523 7.88195L25.3521 7.8819Z" fill="#12ADC1"/>
<path d="M9.81952 0H16.0321V3.15313H9.81952V0Z" fill="#12ADC1"/>
<path d="M6.71295 6.30566H12.9255V9.45879H6.71295V6.30566Z" fill="#12ADC1"/>
<path d="M0.5 6.30566H3.60672V9.45879H0.5V6.30566Z" fill="#12ADC1"/>
</svg>
