<svg width="66" height="82" viewBox="0 0 66 82" fill="none" xmlns="http://www.w3.org/2000/svg">
<path d="M34.4774 13.4851V23.4304H37.4323L37.4316 13.1805C37.43 11.5008 37.1033 9.83666 36.47 8.27832C35.1832 9.71221 34.4736 11.5658 34.4775 13.4851H34.4774Z" fill="#12ADC1"/>
<path d="M7.88682 32.2134C9.58924 32.2118 11.2378 31.6282 12.5567 30.5607C13.8754 29.494 14.7823 28.009 15.1255 26.3564H0.648132C0.990481 28.0091 1.89824 29.4939 3.21615 30.5607C4.5349 31.6282 6.18425 32.2118 7.88682 32.2134Z" fill="#12ADC1"/>
<path d="M10.8415 23.4282H13.7964L13.7956 13.1784C13.7988 10.4614 14.8898 7.8557 16.8278 5.93404C18.7665 4.0124 21.3955 2.93173 24.1366 2.92856C25.676 2.92624 27.1959 3.26789 28.5832 3.92726C29.165 3.10867 29.8209 2.34496 30.5438 1.64625C26.4278 -0.603903 21.4187 -0.530489 17.3719 1.83872C13.3245 4.2072 10.8406 8.51971 10.8414 13.1785L10.8415 23.4282Z" fill="#12ADC1"/>
<path d="M0.5 81.9998H15.2728V32.0537C13.3325 34.0295 10.6687 35.1433 7.88682 35.1433C5.10498 35.1433 2.44114 34.0294 0.5 32.0537V81.9998Z" fill="#12ADC1"/>
<path d="M53.6831 32.2142C54.0746 32.2142 54.4505 32.0604 54.7273 31.786C55.005 31.5108 55.1602 31.139 55.1602 30.7502V13.1786C55.1602 8.47031 52.6265 4.12001 48.5126 1.76538C44.399 -0.58846 39.3306 -0.58846 35.2168 1.76538C31.1031 4.11981 28.5684 8.47031 28.5684 13.1786V30.7502C28.5684 31.5587 29.2305 32.2142 30.0462 32.2142C30.862 32.2142 31.5233 31.5587 31.5233 30.7502V13.4831C31.4866 10.9555 32.378 8.4996 34.0306 6.57418C35.6839 4.64866 37.986 3.38408 40.5097 3.01542C40.951 2.95899 41.3948 2.93116 41.8393 2.93039C44.5852 2.92575 47.2211 4.0033 49.1652 5.92498C51.1094 7.84739 52.2036 10.4569 52.2058 13.1787V30.7502C52.2058 31.139 52.361 31.5109 52.6379 31.786C52.9155 32.0605 53.2906 32.2143 53.6829 32.2143L53.6831 32.2142Z" fill="#12ADC1"/>
<path d="M33 57.1084H50.7278V60.0373H33V57.1084Z" fill="#12ADC1"/>
<path d="M65.5 26.3564H58.114V30.7493C58.114 32.3185 57.2694 33.7694 55.8975 34.554C54.5266 35.3386 52.8374 35.3386 51.4657 34.554C50.0947 33.7694 49.25 32.3185 49.25 30.7493V26.3564H34.4772V30.7493C34.4772 32.3185 33.6326 33.7694 32.2607 34.554C30.8897 35.3386 29.2006 35.3386 27.8288 34.554C26.4578 33.7694 25.6132 32.3185 25.6132 30.7493V26.3564H18.2264V81.9997H65.5V26.3564ZM56.6368 55.6434C56.6368 56.0314 56.4809 56.404 56.204 56.6784C55.9264 56.9529 55.5513 57.1075 55.159 57.1075H53.6819V60.0364H55.159C55.5512 60.0364 55.9264 60.1902 56.204 60.4646C56.4808 60.7398 56.6368 61.1116 56.6368 61.5004V65.8932C56.6368 66.6701 56.3249 67.4145 55.7712 67.9641C55.2167 68.5129 54.4657 68.8221 53.6819 68.8221H30.0461C29.2623 68.8221 28.5106 68.5129 27.9568 67.9641C27.4024 67.4145 27.0912 66.6701 27.0912 65.8932V61.5004C27.0912 60.6919 27.7525 60.0364 28.5682 60.0364H30.0453L30.0461 57.1075H28.5682C27.7525 57.1075 27.0912 56.452 27.0912 55.6434V52.7146C27.0935 50.7736 27.8726 48.9122 29.2577 47.5403C30.642 46.1674 32.5199 45.3952 34.478 45.3928H49.2508C51.2091 45.3951 53.0862 46.1674 54.4711 47.5403C55.8562 48.9123 56.6353 50.7737 56.6377 52.7146L56.6368 55.6434Z" fill="#12ADC1"/>
<path d="M30.0452 62.9658H53.681V65.8947H30.0452V62.9658Z" fill="#12ADC1"/>
<path d="M49.251 48.3213V51.2502H46.2961V48.3213H43.342V51.2502H40.387V48.3213H37.4321V51.2502H34.478V48.3213C33.302 48.3213 32.1751 48.7843 31.3438 49.6075C30.5124 50.4316 30.0461 51.5493 30.0461 52.7141V54.1782H53.6819V52.7141C53.6819 51.5492 53.2148 50.4315 52.3834 49.6075C51.5529 48.7843 50.4252 48.3213 49.25 48.3213H49.251Z" fill="#12ADC1"/>
</svg>
