<svg width="80" height="82" viewBox="0 0 80 82" fill="none" xmlns="http://www.w3.org/2000/svg">
<path d="M29.0882 48.3234C29.0882 49.1319 28.4371 49.7874 27.6339 49.7874C26.8308 49.7874 26.179 49.1319 26.179 48.3234C26.179 47.5149 26.8308 46.8594 27.6339 46.8594C28.4371 46.8594 29.0882 47.5149 29.0882 48.3234Z" fill="#12ADC1"/>
<path d="M55.2696 74.6797C55.2696 74.2909 55.116 73.919 54.8434 73.6439C54.5709 73.3694 54.2008 73.2148 53.8153 73.2148H1.45421C0.651097 73.2148 0 73.8711 0 74.6796C0 75.4882 0.651097 76.1437 1.45421 76.1437H53.8153C54.2008 76.1437 54.5709 75.9898 54.8434 75.7147C55.116 75.4402 55.2696 75.0677 55.2696 74.6796V74.6797Z" fill="#12ADC1"/>
<path d="M49.77 82.0004L50.4979 79.0723H4.77258L5.49969 82.0004H49.77Z" fill="#12ADC1"/>
<path d="M27.6336 52.7139C22.6076 52.7177 17.7373 54.4685 13.8454 57.6703C9.95415 60.872 7.27998 65.3274 6.27478 70.2854H49.0046C47.9934 65.329 45.3159 60.8742 41.4233 57.6734C37.5305 54.4733 32.6604 52.721 27.6344 52.7141L27.6336 52.7139Z" fill="#12ADC1"/>
<path d="M52.3606 30.749H66.9051V32.213H52.3606V30.749Z" fill="#12ADC1"/>
<path d="M68.3604 14.6439C67.5672 14.6462 66.791 14.8696 66.1176 15.2909C65.6362 15.5831 65.0304 15.5699 64.5621 15.2569C64.0937 14.9438 63.8465 14.3865 63.9271 13.8268C63.9662 13.6127 63.99 13.3963 63.997 13.1791C63.997 11.6099 63.1654 10.1598 61.8148 9.37516C60.465 8.58979 58.8019 8.58979 57.4514 9.37516C56.1016 10.1597 55.27 11.6099 55.27 13.1791C55.2761 13.3839 55.2984 13.588 55.3352 13.7897C55.422 14.3548 55.1771 14.9198 54.7072 15.2406C54.2419 15.5622 53.6338 15.5815 53.1493 15.2909C52.4759 14.8696 51.6989 14.6462 50.9066 14.6439C49.3479 14.6439 47.9075 15.481 47.1273 16.84C46.348 18.1989 46.348 19.874 47.1273 21.2328C47.9074 22.5918 49.3478 23.429 50.9066 23.429C51.292 23.429 51.6621 23.5836 51.9347 23.858C52.208 24.1332 52.3608 24.505 52.3608 24.8938V27.8227L66.9061 27.8219V24.8938C66.9061 24.0853 67.5572 23.429 68.3603 23.429C69.919 23.429 71.3594 22.5918 72.1388 21.2329C72.9189 19.874 72.9189 18.1989 72.1388 16.84C71.3594 15.4811 69.919 14.6439 68.3603 14.6439L68.3604 14.6439Z" fill="#12ADC1"/>
<path d="M59.6331 7.54869e-05C53.3509 0.0047133 47.4219 2.92817 43.5676 7.92238C39.7133 12.9166 38.3641 19.422 39.912 25.5519C41.4607 31.6818 45.7319 36.7486 51.4883 39.2825C52.0181 39.5152 52.3605 40.0423 52.3605 40.6244V47.3602L57.4917 41.4545C57.7788 41.1105 58.2111 40.9258 58.6557 40.9552L59.0703 40.9784C59.2576 40.9915 59.4458 41.0062 59.6362 41.0062C66.912 41.0054 73.6349 37.0972 77.272 30.7534C80.9099 24.4094 80.9091 16.5938 77.2712 10.2506C73.6325 3.90742 66.9089 0 59.6332 0L59.6331 7.54869e-05ZM69.8142 26.2099V33.6784C69.8142 34.0664 69.6614 34.439 69.3881 34.7134C69.1155 34.9879 68.7454 35.1425 68.36 35.1425H50.9062C50.1031 35.1425 49.452 34.487 49.452 33.6784V26.2107C47.074 25.7245 45.0939 24.0765 44.1718 21.817C43.2498 19.5576 43.5085 16.9843 44.8606 14.956C46.2119 12.9277 48.48 11.7117 50.9063 11.7141C51.4338 11.7141 51.959 11.7744 52.4726 11.8926C52.8742 9.61695 54.32 7.66521 56.3716 6.6285C58.4238 5.59192 60.8425 5.59192 62.8941 6.6285C64.9464 7.66508 66.3923 9.61695 66.7939 11.8926C67.3075 11.7744 67.8327 11.7141 68.3602 11.7141C70.7865 11.7117 73.0538 12.9276 74.4059 14.956C75.7581 16.9844 76.016 19.5576 75.0947 21.817C74.1725 24.0765 72.1923 25.7245 69.8145 26.2107L69.8142 26.2099Z" fill="#12ADC1"/>
</svg>
