<svg width="60" height="82" viewBox="0 0 60 82" fill="none" xmlns="http://www.w3.org/2000/svg">
<path d="M19.3498 49.7845H40.6465L41.3847 46.8564H18.6129L19.3498 49.7845Z" fill="#12ADC1"/>
<path d="M31.4732 27.8195C31.4732 28.6288 30.8129 29.2843 29.9977 29.2843C29.1832 29.2843 28.5229 28.6288 28.5229 27.8195C28.5229 27.011 29.1832 26.3555 29.9977 26.3555C30.8129 26.3555 31.4732 27.011 31.4732 27.8195Z" fill="#12ADC1"/>
<path d="M16.7227 17.5709H43.2737V14.6428C43.2737 13.4772 42.8081 12.3602 41.9781 11.5362C41.148 10.7122 40.0229 10.25 38.8488 10.25H35.8992C35.084 10.25 34.4237 9.59372 34.4237 8.78518V4.39235C34.4237 2.82319 33.5804 1.37304 32.2115 0.588428C30.8427 -0.196143 29.1554 -0.196143 27.7865 0.588428C26.4177 1.373 25.5736 2.82313 25.5736 4.39235V8.78518C25.5736 9.17398 25.4186 9.54581 25.1422 9.82099C24.865 10.0954 24.4897 10.25 24.0988 10.25H21.1485C19.9751 10.25 18.85 10.7122 18.02 11.5362C17.1899 12.3603 16.7235 13.4772 16.7235 14.6428L16.7227 17.5709ZM28.5229 4.39221H31.4733V7.3211H28.5229V4.39221Z" fill="#12ADC1"/>
<path d="M31.0405 66.9272L28.9545 64.8564L33.3679 60.4742C32.7777 60.1875 32.1299 60.0375 31.4727 60.0352C30.2985 60.0352 29.1734 60.4974 28.3434 61.3214C27.5134 62.1454 27.0477 63.2624 27.0477 64.428C27.0477 65.5929 27.5134 66.7098 28.3434 67.5338C29.1734 68.3578 30.2986 68.8208 31.4727 68.8208C32.6461 68.8208 33.7712 68.3578 34.6012 67.5338C35.4313 66.7098 35.8977 65.5928 35.8977 64.428C35.8946 63.7756 35.7435 63.1317 35.4546 62.5458L31.0405 66.9272Z" fill="#12ADC1"/>
<path d="M59.4993 16.1067C59.4993 14.9418 59.0329 13.8241 58.2029 13.0001C57.3736 12.1769 56.2477 11.7139 55.0744 11.7139H45.5991C46.0102 12.636 46.2236 13.634 46.2243 14.6427H53.5996C54.3814 14.6427 55.132 14.9512 55.6856 15.5C56.2385 16.0496 56.5492 16.794 56.5492 17.5708V76.1426C56.5492 76.9194 56.2385 77.6646 55.6856 78.2134C55.132 78.763 54.3814 79.0714 53.5996 79.0714H6.3997C5.61716 79.0714 4.86733 78.763 4.31369 78.2134C3.76086 77.6646 3.45018 76.9194 3.45018 76.1426V17.5708C3.45018 16.794 3.76086 16.0496 4.31369 15.5C4.86729 14.9512 5.61714 14.6427 6.3997 14.6427H13.775C13.7758 13.634 13.9891 12.636 14.4003 11.7139H4.92498C3.75157 11.7139 2.62568 12.1769 1.79566 13.0001C0.966398 13.8241 0.5 14.9419 0.5 16.1067V77.6071C0.5 78.7728 0.966398 79.8897 1.79566 80.7137C2.6257 81.5377 3.75161 81.9999 4.92498 81.9999H55.075C56.2484 81.9999 57.3743 81.5377 58.2036 80.7137C59.0336 79.8897 59.5 78.7727 59.5 77.6071L59.4993 16.1067Z" fill="#12ADC1"/>
<path d="M29.998 32.212C28.1698 32.2058 26.3843 32.767 24.8925 33.8167C23.4006 34.8672 22.2763 36.3536 21.6775 38.0696H38.3172C37.7184 36.3543 36.5948 34.8678 35.1029 33.8175C33.6118 32.7678 31.8271 32.2066 29.9982 32.212L29.998 32.212Z" fill="#12ADC1"/>
<path d="M16.7225 43.9269H43.2736C44.0881 43.9269 44.7491 43.2714 44.7491 42.4628C44.7491 41.6535 44.0881 40.998 43.2736 40.998H16.7225C15.9081 40.998 15.2478 41.6535 15.2478 42.4628C15.2478 43.2714 15.9081 43.9269 16.7225 43.9269Z" fill="#12ADC1"/>
<path d="M13.7745 19.0351V17.5703H6.39917V64.4273H13.7745C14.9479 64.4273 16.0738 64.8895 16.903 65.7135C17.733 66.5375 18.1994 67.6545 18.1994 68.8201V76.1418L53.5989 76.141V17.5693H46.2236V19.0341C46.2236 19.4222 46.0679 19.7948 45.7914 20.0692C45.515 20.3436 45.1397 20.4982 44.7488 20.4982H15.2476C14.4332 20.4982 13.7729 19.8427 13.7729 19.0342L13.7745 19.0351ZM38.8485 64.4277C38.8555 66.6252 37.8697 68.7109 36.1629 70.1108C34.4553 71.5106 32.2065 72.078 30.0334 71.6567C27.8603 71.2347 25.9916 69.8696 24.9411 67.9347C23.8899 66 23.7669 63.6996 24.6063 61.6658C25.4456 59.6313 27.1587 58.0775 29.275 57.4307C31.3913 56.7844 33.6876 57.1122 35.5345 58.3258L37.8059 56.0709L39.8919 58.1417L37.6205 60.3966L37.6197 60.3959C38.4209 61.5901 38.8484 62.9931 38.8484 64.4277H38.8485ZM47.6985 68.8206H41.7986V65.8917H47.6985V68.8206ZM47.6985 62.9636L41.7986 62.9628V60.0347H47.6985V62.9636ZM18.578 38.0698C18.6161 37.9237 18.6504 37.7768 18.6932 37.6307L18.6925 37.6299C19.7646 34.0108 22.5414 31.1346 26.1385 29.9178C25.7733 29.2778 25.5787 28.555 25.5732 27.8192C25.5732 26.2501 26.4173 24.7999 27.7862 24.0153C29.1551 23.2307 30.8424 23.2307 32.2112 24.0153C33.5801 24.7999 34.4234 26.25 34.4234 27.8192C34.4187 28.5567 34.2248 29.281 33.8589 29.9226C37.46 31.1439 40.2383 34.0271 41.3089 37.6523C41.3486 37.7814 41.3829 37.929 41.4195 38.0697H43.2735C44.71 38.0658 46.0579 38.7553 46.8879 39.9187C47.7172 41.0828 47.9251 42.5739 47.4447 43.9173C46.9635 45.2608 45.8547 46.288 44.471 46.6707L43.2291 51.604C43.0648 52.2556 42.4754 52.7124 41.7987 52.7124H18.1998C17.5231 52.7124 16.9329 52.2556 16.7686 51.604L15.5267 46.6707C14.1438 46.2881 13.0342 45.2608 12.5538 43.9173C12.0734 42.5739 12.2805 41.0829 13.1106 39.9187C13.9406 38.7554 15.2885 38.0659 16.7243 38.0697L18.578 38.0698Z" fill="#12ADC1"/>
<path d="M6.39917 76.1398H13.1641L6.39917 69.4248V76.1398Z" fill="#12ADC1"/>
<path d="M15.2476 68.8213C15.2476 68.4325 15.0926 68.0599 14.8154 67.7855C14.539 67.5111 14.1637 67.3564 13.7728 67.3564H8.48352L15.2477 74.0722L15.2476 68.8213Z" fill="#12ADC1"/>
</svg>
