<svg width="16" height="33" viewBox="0 0 16 33" fill="none" xmlns="http://www.w3.org/2000/svg">
<path d="M5.12515 16.0095L15.2819 4.72364C15.6873 4.26956 15.9412 3.61975 15.9881 2.91652C16.035 2.21329 15.8709 1.51394 15.5319 0.97163C15.193 0.429319 14.7066 0.0882405 14.1794 0.0230844C13.6523 -0.0420717 13.1272 0.174005 12.7193 0.623998L0.718703 13.9597C0.493683 14.2104 0.312681 14.5239 0.188478 14.8781C0.0642752 15.2323 -9.91821e-05 15.6185 -9.91821e-05 16.0095C-9.91821e-05 16.4005 0.0642752 16.7868 0.188478 17.141C0.312681 17.4952 0.493683 17.8087 0.718703 18.0594L12.7193 31.395C13.127 31.8472 13.6527 32.065 14.1809 32.0006C14.709 31.9362 15.1964 31.595 15.5359 31.0517C15.8755 30.5085 16.0394 29.8078 15.9918 29.1034C15.9442 28.3991 15.6888 27.7488 15.2819 27.2953L5.12515 16.0095Z" fill="white"/>
</svg>
